<svg version="1.1" xmlns="http://www.w3.org/2000/svg" viewBox="0 0 597.6000061035156 636.6000061035156" width="597.6000061035156" height="636.6000061035156">
  <!-- svg-source:excalidraw -->
  
  <defs>
    <style>
      @font-face {
        font-family: "Virgil";
        src: url("https://excalidraw.com/Virgil.woff2");
      }
      @font-face {
        font-family: "Cascadia";
        src: url("https://excalidraw.com/Cascadia.woff2");
      }
    </style>
  </defs>
  <rect x="0" y="0" width="597.6000061035156" height="636.6000061035156" fill="#ffffff"></rect><g><g transform="translate(10 10) rotate(0 288.0000305175781 0)"><path d="M0 0 C96.00001017252605 0, 480.0000508626302 0, 576.0000610351562 0 M0 0 C96.00001017252605 0, 480.0000508626302 0, 576.0000610351562 0" stroke="#000000" stroke-width="1" fill="none"></path></g></g><g><g transform="translate(11.599945068359375 626.6000061035156) rotate(0 288.0000305175781 0)"><path d="M0 0 C96.00001017252605 0, 480.0000508626302 0, 576.0000610351562 0 M0 0 C96.00001017252605 0, 480.0000508626302 0, 576.0000610351562 0" stroke="#000000" stroke-width="1" fill="none"></path></g></g><g transform="translate(13.550018310546875 49.899993896484375) rotate(0 13.199996948242188 13.199996948242188)"><path d="M0 0 C7.108549892600564 0, 14.217099785201128 0, 26.399993896484375 0 M0 0 C8.871784988684652 0, 17.743569977369305 0, 26.399993896484375 0 M26.399993896484375 0 C26.399993896484375 8.968837696270526, 26.399993896484375 17.937675392541053, 26.399993896484375 26.399993896484375 M26.399993896484375 0 C26.399993896484375 6.86232096523085, 26.399993896484375 13.7246419304617, 26.399993896484375 26.399993896484375 M26.399993896484375 26.399993896484375 C17.210338995291607 26.399993896484375, 8.02068409409884 26.399993896484375, 0 26.399993896484375 M26.399993896484375 26.399993896484375 C18.575984534929972 26.399993896484375, 10.75197517337557 26.399993896484375, 0 26.399993896484375 M0 26.399993896484375 C0 17.03973982685497, 0 7.679485757225564, 0 0 M0 26.399993896484375 C0 18.282005182234258, 0 10.164016467984137, 0 0" stroke="#000000" stroke-width="1" fill="none"></path></g><g transform="translate(60.350067138671875 51.30000305175781) rotate(0 85 11.5)"><text x="0" y="19" font-family="Helvetica, Segoe UI Emoji" font-size="20px" fill="#000000" text-anchor="start" style="white-space: pre;" direction="ltr">Storm frontend test</text></g><g><g transform="translate(567.0796295302439 56.70002746582031) rotate(0 5.705511403859646 5.8351699760889915)"><path d="M0 0 C1.9018371346198713 1.9450566586963325, 9.509185673099356 9.725283293481663, 11.411022807719228 11.670339952177995 M0 0 C1.9018371346198713 1.9450566586963325, 9.509185673099356 9.725283293481663, 11.411022807719228 11.670339952177995" stroke="#000000" stroke-width="1" fill="none"></path></g></g><g><g transform="translate(567.0796097441039 56.95936439641855) rotate(270 5.705511403859646 5.8351699760889915)"><path d="M0 0 C1.9018371346198713 1.9450566586963325, 9.509185673099356 9.725283293481663, 11.411022807719228 11.670339952177995 M0 0 C1.9018371346198713 1.9450566586963325, 9.509185673099356 9.725283293481663, 11.411022807719228 11.670339952177995" stroke="#000000" stroke-width="1" fill="none"></path></g></g><g stroke-opacity="0.6" fill-opacity="0.6" transform="translate(14.932390597893004 514.5) rotate(0 13.199996948242188 13.199996948242188)"><path d="M0 0 C6.861558367786672 0, 13.723116735573344 0, 26.399993896484375 0 M0 0 C8.72927075943366 0, 17.45854151886732 0, 26.399993896484375 0 M26.399993896484375 0 C26.399993896484375 6.8140895019224965, 26.399993896484375 13.628179003844993, 26.399993896484375 26.399993896484375 M26.399993896484375 0 C26.399993896484375 7.517761415999616, 26.399993896484375 15.035522831999232, 26.399993896484375 26.399993896484375 M26.399993896484375 26.399993896484375 C16.49187328481716 26.399993896484375, 6.583752673149945 26.399993896484375, 0 26.399993896484375 M26.399993896484375 26.399993896484375 C17.270670424593533 26.399993896484375, 8.141346952702687 26.399993896484375, 0 26.399993896484375 M0 26.399993896484375 C0 17.974118735473752, 0 9.548243574463129, 0 0 M0 26.399993896484375 C0 19.625366454413466, 0 12.850739012342558, 0 0" stroke="#000000" stroke-width="1" fill="none"></path></g><g stroke-opacity="0.6" fill-opacity="0.6" transform="translate(61.532427218986754 516.1999664306641) rotate(0 51.5 11.5)"><text x="0" y="19" font-family="Helvetica, Segoe UI Emoji" font-size="20px" fill="#000000" text-anchor="start" style="white-space: pre;" direction="ltr">Cover letter</text></g><g><g stroke-opacity="0.6" fill-opacity="0.6" transform="translate(567.4269722223607 523.3999938964844) rotate(0 5.705511403859646 5.8351699760889915)"><path d="M0 0 C1.9018371346198713 1.9450566586963325, 9.509185673099356 9.725283293481663, 11.411022807719228 11.670339952177995 M0 0 C1.9018371346198713 1.9450566586963325, 9.509185673099356 9.725283293481663, 11.411022807719228 11.670339952177995" stroke="#000000" stroke-width="1" fill="none"></path></g></g><g><g stroke-opacity="0.6" fill-opacity="0.6" transform="translate(567.4269524362207 523.6593308270826) rotate(270 5.705511403859646 5.8351699760889915)"><path d="M0 0 C1.9018371346198713 1.9450566586963325, 9.509185673099356 9.725283293481663, 11.411022807719228 11.670339952177995 M0 0 C1.9018371346198713 1.9450566586963325, 9.509185673099356 9.725283293481663, 11.411022807719228 11.670339952177995" stroke="#000000" stroke-width="1" fill="none"></path></g></g><g><g stroke-opacity="0.6" fill-opacity="0.6" transform="translate(21.35003662109375 529.2692476531992) rotate(0 2.0307765260713495 2.0769190139296825)"><path d="M0 0 C0.6769255086904521 0.6923063379765516, 3.38462754345226 3.4615316898827584, 4.061553052142712 4.15383802785931 M0 0 C0.6769255086904521 0.6923063379765516, 3.38462754345226 3.4615316898827584, 4.061553052142712 4.15383802785931" stroke="#000000" stroke-width="1" fill="none"></path></g></g><g><g stroke-opacity="0.6" fill-opacity="0.6" transform="translate(25.41158967323554 533.6999969482422) rotate(0 5.16920516338223 -5.07691314516137)"><path d="M0 0 C1.723068387794078 -1.6923043817204604, 8.61534193897039 -8.461521908602302, 10.338410326764468 -10.153826290322762 M0 0 C1.723068387794078 -1.6923043817204604, 8.61534193897039 -8.461521908602302, 10.338410326764468 -10.153826290322762" stroke="#000000" stroke-width="1" fill="none"></path></g></g><g><g stroke-opacity="0.6" fill-opacity="0.6" transform="translate(60.750030517578125 529.6999969482422) rotate(0 52.313051306683064 0)"><path d="M0 0 C17.437683768894356 0, 87.18841884447177 0, 104.62610261336613 0 M0 0 C17.437683768894356 0, 87.18841884447177 0, 104.62610261336613 0" stroke="#000000" stroke-width="1" fill="none"></path></g></g><g><g transform="translate(26.361786152660898 103.4117892044182) rotate(0 0 7.094116078943131)"><path d="M0 0 C0 2.36470535964771, 0 11.823526798238552, 0 14.188232157886262 M0 0 C0 2.36470535964771, 0 11.823526798238552, 0 14.188232157886262" stroke="#000000" stroke-width="1" fill="none"></path></g></g><g><g transform="translate(18.95001220703125 110.26472147113248) rotate(0 8 0)"><path d="M0 0 C2.6666666666666665 0, 13.333333333333334 0, 16 0 M0 0 C2.6666666666666665 0, 13.333333333333334 0, 16 0" stroke="#000000" stroke-width="1" fill="none"></path></g></g><g stroke-opacity="0.6" fill-opacity="0.6" transform="translate(14.532366183830732 565.8000183105469) rotate(0 13.199996948242188 13.199996948242188)"><path d="M0 0 C9.066692389530857 0, 18.133384779061714 0, 26.399993896484375 0 M0 0 C6.8196566078360386 0, 13.639313215672077 0, 26.399993896484375 0 M26.399993896484375 0 C26.399993896484375 7.538078779809752, 26.399993896484375 15.076157559619505, 26.399993896484375 26.399993896484375 M26.399993896484375 0 C26.399993896484375 9.533651031761254, 26.399993896484375 19.067302063522508, 26.399993896484375 26.399993896484375 M26.399993896484375 26.399993896484375 C20.080322957048935 26.399993896484375, 13.760652017613495 26.399993896484375, 0 26.399993896484375 M26.399993896484375 26.399993896484375 C18.074587066471253 26.399993896484375, 9.74918023645813 26.399993896484375, 0 26.399993896484375 M0 26.399993896484375 C0 20.223950009528977, 0 14.047906122573577, 0 0 M0 26.399993896484375 C0 17.8362869554347, 0 9.272580014385028, 0 0" stroke="#000000" stroke-width="1" fill="none"></path></g><g stroke-opacity="0.6" fill-opacity="0.6" transform="translate(61.13240280492448 567.4999847412109) rotate(0 49 11.5)"><text x="0" y="19" font-family="Helvetica, Segoe UI Emoji" font-size="20px" fill="#000000" text-anchor="start" style="white-space: pre;" direction="ltr">Update CV</text></g><g><g stroke-opacity="0.6" fill-opacity="0.6" transform="translate(567.0269478082982 574.7000122070312) rotate(0 5.705511403859646 5.8351699760889915)"><path d="M0 0 C1.9018371346198713 1.9450566586963325, 9.509185673099356 9.725283293481663, 11.411022807719228 11.670339952177995 M0 0 C1.9018371346198713 1.9450566586963325, 9.509185673099356 9.725283293481663, 11.411022807719228 11.670339952177995" stroke="#000000" stroke-width="1" fill="none"></path></g></g><g><g stroke-opacity="0.6" fill-opacity="0.6" transform="translate(567.0269280221582 574.9593491376295) rotate(270 5.705511403859646 5.8351699760889915)"><path d="M0 0 C1.9018371346198713 1.9450566586963325, 9.509185673099356 9.725283293481663, 11.411022807719228 11.670339952177995 M0 0 C1.9018371346198713 1.9450566586963325, 9.509185673099356 9.725283293481663, 11.411022807719228 11.670339952177995" stroke="#000000" stroke-width="1" fill="none"></path></g></g><g><g stroke-opacity="0.6" fill-opacity="0.6" transform="translate(20.950012207031364 580.5692659637461) rotate(0 2.0307765260713495 2.0769190139296825)"><path d="M0 0 C0.6769255086904521 0.6923063379765516, 3.38462754345226 3.4615316898827584, 4.061553052142712 4.15383802785931 M0 0 C0.6769255086904521 0.6923063379765516, 3.38462754345226 3.4615316898827584, 4.061553052142712 4.15383802785931" stroke="#000000" stroke-width="1" fill="none"></path></g></g><g><g stroke-opacity="0.6" fill-opacity="0.6" transform="translate(25.011565259173153 585.0000152587891) rotate(0 5.16920516338223 -5.07691314516137)"><path d="M0 0 C1.723068387794078 -1.6923043817204604, 8.61534193897039 -8.461521908602302, 10.338410326764468 -10.153826290322762 M0 0 C1.723068387794078 -1.6923043817204604, 8.61534193897039 -8.461521908602302, 10.338410326764468 -10.153826290322762" stroke="#000000" stroke-width="1" fill="none"></path></g></g><g><g stroke-opacity="0.6" fill-opacity="0.6" transform="translate(60.35000610351574 581.0000152587891) rotate(0 49.2695730458135 0)"><path d="M0 0 C16.42319101527117 0, 82.11595507635583 0, 98.539146091627 0 M0 0 C16.42319101527117 0, 82.11595507635583 0, 98.539146091627 0" stroke="#000000" stroke-width="1" fill="none"></path></g></g><g transform="translate(60.550018310546875 98.3000030517577) rotate(0 41.5 11.5)"><text x="0" y="19" font-family="Helvetica, Segoe UI Emoji" font-size="20px" fill="#000000" text-anchor="start" style="white-space: pre;" direction="ltr">New item</text></g></svg>